<svg width="76" height="35" viewBox="0 0 76 35" fill="none" xmlns="http://www.w3.org/2000/svg">
<path d="M10.8115 20.23C9.56948 20.23 8.40415 20 7.31548 19.54C6.24215 19.0647 5.29915 18.413 4.48648 17.585C3.68915 16.7417 3.06048 15.7603 2.60048 14.641C2.15582 13.5217 1.93348 12.3103 1.93348 11.007C1.93348 9.719 2.15582 8.523 2.60048 7.419C3.06048 6.29967 3.68915 5.326 4.48648 4.498C5.29915 3.65467 6.24215 2.99533 7.31548 2.52C8.38882 2.04467 9.55415 1.807 10.8115 1.807C11.9921 1.807 13.0041 1.96033 13.8475 2.267C14.7061 2.57367 15.5648 3.07967 16.4235 3.785C16.5462 3.877 16.6382 3.97667 16.6995 4.084C16.7762 4.176 16.8222 4.27567 16.8375 4.383C16.8682 4.475 16.8835 4.59 16.8835 4.728C16.8835 5.01933 16.7762 5.26467 16.5615 5.464C16.3622 5.66333 16.1092 5.77067 15.8025 5.786C15.5112 5.80133 15.2352 5.70167 14.9745 5.487C14.4072 4.99633 13.8168 4.62067 13.2035 4.36C12.6055 4.09933 11.8082 3.969 10.8115 3.969C9.90682 3.969 9.05582 4.153 8.25848 4.521C7.46115 4.889 6.75582 5.395 6.14248 6.039C5.54448 6.683 5.07682 7.43433 4.73948 8.293C4.40215 9.13633 4.23348 10.041 4.23348 11.007C4.23348 11.9883 4.40215 12.9083 4.73948 13.767C5.07682 14.6103 5.54448 15.354 6.14248 15.998C6.75582 16.642 7.46115 17.148 8.25848 17.516C9.05582 17.8687 9.90682 18.045 10.8115 18.045C11.5935 18.045 12.3295 17.9147 13.0195 17.654C13.7248 17.378 14.3995 17.0023 15.0435 16.527C15.3195 16.3277 15.5878 16.2433 15.8485 16.274C16.1245 16.2893 16.3545 16.3967 16.5385 16.596C16.7225 16.78 16.8145 17.0407 16.8145 17.378C16.8145 17.5313 16.7838 17.6847 16.7225 17.838C16.6765 17.976 16.5845 18.1063 16.4465 18.229C15.6338 18.9037 14.7522 19.4097 13.8015 19.747C12.8508 20.069 11.8541 20.23 10.8115 20.23ZM16.8145 17.378L14.5145 16.918V12.801H11.3405C11.0032 12.801 10.7195 12.7013 10.4895 12.502C10.2595 12.3027 10.1445 12.0497 10.1445 11.743C10.1445 11.4363 10.2595 11.1833 10.4895 10.984C10.7195 10.7847 11.0032 10.685 11.3405 10.685H15.6415C15.9942 10.685 16.2778 10.8 16.4925 11.03C16.7072 11.2447 16.8145 11.5283 16.8145 11.881V17.378ZM28.3454 20.23C27.1034 20.23 25.9381 20 24.8494 19.54C23.7761 19.0647 22.8331 18.413 22.0204 17.585C21.2231 16.7417 20.5944 15.7603 20.1344 14.641C19.6897 13.5217 19.4674 12.3103 19.4674 11.007C19.4674 9.719 19.6897 8.523 20.1344 7.419C20.5944 6.29967 21.2231 5.326 22.0204 4.498C22.8331 3.65467 23.7761 2.99533 24.8494 2.52C25.9227 2.04467 27.0881 1.807 28.3454 1.807C29.5261 1.807 30.5381 1.96033 31.3814 2.267C32.2401 2.57367 33.0987 3.07967 33.9574 3.785C34.0801 3.877 34.1721 3.97667 34.2334 4.084C34.3101 4.176 34.3561 4.27567 34.3714 4.383C34.4021 4.475 34.4174 4.59 34.4174 4.728C34.4174 5.01933 34.3101 5.26467 34.0954 5.464C33.8961 5.648 33.6507 5.75533 33.3594 5.786C33.0681 5.80133 32.7844 5.70167 32.5084 5.487C31.9411 4.99633 31.3507 4.62067 30.7374 4.36C30.1394 4.09933 29.3421 3.969 28.3454 3.969C27.4407 3.969 26.5897 4.153 25.7924 4.521C24.9951 4.889 24.2897 5.395 23.6764 6.039C23.0784 6.683 22.6107 7.43433 22.2734 8.293C21.9361 9.13633 21.7674 10.041 21.7674 11.007C21.7674 11.9883 21.9361 12.9083 22.2734 13.767C22.6107 14.6103 23.0784 15.354 23.6764 15.998C24.2897 16.642 24.9951 17.148 25.7924 17.516C26.5897 17.8687 27.4407 18.045 28.3454 18.045C29.1274 18.045 29.8634 17.9147 30.5534 17.654C31.2587 17.378 31.9334 17.0023 32.5774 16.527C32.8534 16.3277 33.1217 16.2433 33.3824 16.274C33.6584 16.2893 33.8884 16.3967 34.0724 16.596C34.2564 16.78 34.3484 17.0407 34.3484 17.378C34.3484 17.5313 34.3177 17.6847 34.2564 17.838C34.1951 17.976 34.1031 18.1063 33.9804 18.229C33.1524 18.8883 32.2631 19.3867 31.3124 19.724C30.3771 20.0613 29.3881 20.23 28.3454 20.23ZM39.0253 20C38.688 20 38.4043 19.885 38.1743 19.655C37.9443 19.425 37.8293 19.1413 37.8293 18.804V3.233C37.8293 2.88033 37.9443 2.59667 38.1743 2.382C38.4043 2.152 38.688 2.037 39.0253 2.037C39.378 2.037 39.6616 2.152 39.8763 2.382C40.1063 2.59667 40.2213 2.88033 40.2213 3.233V18.804C40.2213 19.1413 40.1063 19.425 39.8763 19.655C39.6616 19.885 39.378 20 39.0253 20ZM50.1736 20.23C49.1923 20.23 48.257 20.0767 47.3676 19.77C46.4783 19.4633 45.704 19.034 45.0446 18.482C44.3853 17.93 43.9023 17.2937 43.5956 16.573C43.4423 16.251 43.4423 15.952 43.5956 15.676C43.7643 15.4 44.0403 15.2237 44.4236 15.147C44.6996 15.0857 44.968 15.1317 45.2286 15.285C45.5046 15.423 45.7116 15.6377 45.8496 15.929C46.0336 16.3123 46.3326 16.665 46.7466 16.987C47.176 17.309 47.6896 17.5697 48.2876 17.769C48.8856 17.9683 49.5143 18.068 50.1736 18.068C50.9096 18.068 51.5843 17.953 52.1976 17.723C52.8263 17.493 53.3323 17.1633 53.7156 16.734C54.099 16.2893 54.2906 15.745 54.2906 15.101C54.2906 14.2883 53.9686 13.56 53.3246 12.916C52.696 12.272 51.6533 11.8733 50.1966 11.72C48.2953 11.536 46.8003 10.9763 45.7116 10.041C44.623 9.10567 44.0786 7.948 44.0786 6.568C44.0786 5.556 44.3623 4.69733 44.9296 3.992C45.497 3.28667 46.2636 2.75 47.2296 2.382C48.211 2.014 49.2996 1.83 50.4956 1.83C51.431 1.83 52.2436 1.96033 52.9336 2.221C53.639 2.48167 54.2523 2.842 54.7736 3.302C55.295 3.762 55.7473 4.30633 56.1306 4.935C56.3453 5.27233 56.4296 5.59433 56.3836 5.901C56.353 6.19233 56.2073 6.42233 55.9466 6.591C55.6553 6.775 55.341 6.81333 55.0036 6.706C54.6663 6.59867 54.4133 6.39933 54.2446 6.108C53.9993 5.66333 53.7003 5.28767 53.3476 4.981C52.995 4.67433 52.581 4.43667 52.1056 4.268C51.6303 4.084 51.0706 3.992 50.4266 3.992C49.292 3.97667 48.3413 4.19133 47.5746 4.636C46.808 5.06533 46.4246 5.73233 46.4246 6.637C46.4246 7.097 46.5396 7.54167 46.7696 7.971C47.015 8.385 47.452 8.74533 48.0806 9.052C48.7246 9.35867 49.6446 9.57333 50.8406 9.696C52.6653 9.88 54.0836 10.4397 55.0956 11.375C56.123 12.295 56.6366 13.514 56.6366 15.032C56.6366 15.906 56.4526 16.665 56.0846 17.309C55.732 17.953 55.249 18.4973 54.6356 18.942C54.0376 19.3713 53.3476 19.6933 52.5656 19.908C51.799 20.1227 51.0016 20.23 50.1736 20.23ZM68.0096 20.23C66.7676 20.23 65.6023 20 64.5136 19.54C63.4403 19.0647 62.4973 18.413 61.6846 17.585C60.8873 16.7417 60.2586 15.7603 59.7986 14.641C59.3539 13.5217 59.1316 12.3103 59.1316 11.007C59.1316 9.719 59.3539 8.523 59.7986 7.419C60.2586 6.29967 60.8873 5.326 61.6846 4.498C62.4973 3.65467 63.4403 2.99533 64.5136 2.52C65.5869 2.04467 66.7523 1.807 68.0096 1.807C69.1903 1.807 70.2023 1.96033 71.0456 2.267C71.9043 2.57367 72.7629 3.07967 73.6216 3.785C73.7443 3.877 73.8363 3.97667 73.8976 4.084C73.9743 4.176 74.0203 4.27567 74.0356 4.383C74.0663 4.475 74.0816 4.59 74.0816 4.728C74.0816 5.01933 73.9743 5.26467 73.7596 5.464C73.5603 5.648 73.3149 5.75533 73.0236 5.786C72.7323 5.80133 72.4486 5.70167 72.1726 5.487C71.6053 4.99633 71.0149 4.62067 70.4016 4.36C69.8036 4.09933 69.0063 3.969 68.0096 3.969C67.1049 3.969 66.2539 4.153 65.4566 4.521C64.6593 4.889 63.9539 5.395 63.3406 6.039C62.7426 6.683 62.2749 7.43433 61.9376 8.293C61.6003 9.13633 61.4316 10.041 61.4316 11.007C61.4316 11.9883 61.6003 12.9083 61.9376 13.767C62.2749 14.6103 62.7426 15.354 63.3406 15.998C63.9539 16.642 64.6593 17.148 65.4566 17.516C66.2539 17.8687 67.1049 18.045 68.0096 18.045C68.7916 18.045 69.5276 17.9147 70.2176 17.654C70.9229 17.378 71.5976 17.0023 72.2416 16.527C72.5176 16.3277 72.7859 16.2433 73.0466 16.274C73.3226 16.2893 73.5526 16.3967 73.7366 16.596C73.9206 16.78 74.0126 17.0407 74.0126 17.378C74.0126 17.5313 73.9819 17.6847 73.9206 17.838C73.8593 17.976 73.7673 18.1063 73.6446 18.229C72.8166 18.8883 71.9273 19.3867 70.9766 19.724C70.0413 20.0613 69.0523 20.23 68.0096 20.23Z" fill="white"/>
<path d="M23.7893 31.992H30.4933V32.856H23.7893V31.992ZM26.5973 30.408H27.6613V32.2H26.5973V30.408ZM24.4933 26.776H25.5493V27.912H28.7093V26.776H29.7653V30.632H24.4933V26.776ZM25.5493 28.744V29.784H28.7093V28.744H25.5493ZM35.7886 26.304H36.8526V31.688H35.7886V26.304ZM36.5486 28.424H37.8366V29.296H36.5486V28.424ZM32.0766 32.736H37.1166V33.584H32.0766V32.736ZM32.0766 31.128H33.1406V33.112H32.0766V31.128ZM33.0846 26.776C34.2206 26.776 35.1006 27.568 35.1006 28.664C35.1006 29.752 34.2206 30.544 33.0846 30.544C31.9486 30.544 31.0686 29.752 31.0686 28.664C31.0686 27.568 31.9486 26.776 33.0846 26.776ZM33.0846 27.704C32.5406 27.704 32.1086 28.056 32.1086 28.664C32.1086 29.264 32.5406 29.616 33.0846 29.616C33.6366 29.616 34.0606 29.264 34.0606 28.664C34.0606 28.056 33.6366 27.704 33.0846 27.704ZM38.268 32.016H44.972V32.888H38.268V32.016ZM41.068 30.344H42.132V32.408H41.068V30.344ZM38.78 26.912H44.42V27.76H38.78V26.912ZM38.812 29.864H44.396V30.696H38.812V29.864ZM39.788 27.616H40.852V29.96H39.788V27.616ZM42.356 27.616H43.412V29.96H42.356V27.616ZM45.7714 29.168H46.3874C47.8754 29.168 48.6994 29.152 49.6914 29L49.7794 29.824C48.7794 29.976 47.8994 29.992 46.3874 29.992H45.7714V29.168ZM45.7714 26.6H49.2514V27.424H46.8354V29.672H45.7714V26.6ZM46.5074 27.88H49.0914V28.672H46.5074V27.88ZM50.2674 26.304H51.3314V30.104H50.2674V26.304ZM50.8994 27.752H52.3074V28.608H50.8994V27.752ZM46.4354 30.416H51.3314V32.392H47.5074V33.28H46.4514V31.64H50.2834V31.224H46.4354V30.416ZM46.4514 32.856H51.5474V33.664H46.4514V32.856Z" fill="white"/>
</svg>
